<svg id="AR_Download_on_the_App_Store" data-name="download-appstore-ar" xmlns="http://www.w3.org/2000/svg" viewBox="0 0 133.14 38.21"><title>appstore-download-button</title><path d="M133.14,34.38a3.83,3.83,0,0,1-3.83,3.83H3.84A3.83,3.83,0,0,1,0,34.38V3.84A3.84,3.84,0,0,1,3.84,0H129.31a3.83,3.83,0,0,1,3.83,3.84V34.38Z"/><path d="M29.24,18.89A5.8,5.8,0,0,1,32,14a5.94,5.94,0,0,0-4.68-2.53c-2-.21-3.87,1.18-4.88,1.18s-2.57-1.16-4.23-1.12A6.23,6.23,0,0,0,13,14.75c-2.27,3.92-.58,9.69,1.6,12.86,1.09,1.55,2.36,3.29,4,3.23s2.23-1,4.19-1,2.51,1,4.21,1,2.84-1.56,3.89-3.13A12.83,12.83,0,0,0,32.66,24,5.6,5.6,0,0,1,29.24,18.89Z" style="fill:#fff"/><path d="M26,9.42a5.71,5.71,0,0,0,1.31-4.09,5.81,5.81,0,0,0-3.76,1.94,5.43,5.43,0,0,0-1.34,3.94A4.8,4.8,0,0,0,26,9.42Z" style="fill:#fff"/><path d="M52.76,30.61H50.48L49.24,26.7H44.92l-1.19,3.91H41.52L45.8,17.31h2.65Zm-3.89-5.55-1.12-3.48q-.18-.53-.67-2.51h0q-.2.85-.63,2.51l-1.1,3.48Z" style="fill:#fff"/><path d="M63.77,25.7a5.45,5.45,0,0,1-1.32,3.87,3.87,3.87,0,0,1-2.94,1.26,2.94,2.94,0,0,1-2.72-1.36h0v5.05H54.61V24.18q0-1.54-.08-3.16h1.88l.12,1.52h0a3.79,3.79,0,0,1,6.07-.38A5.29,5.29,0,0,1,63.77,25.7Zm-2.17.08A4,4,0,0,0,61,23.47a2.18,2.18,0,0,0-1.86-.95,2.22,2.22,0,0,0-1.43.52,2.43,2.43,0,0,0-.84,1.37,2.79,2.79,0,0,0-.1.65v1.6a2.56,2.56,0,0,0,.64,1.77,2.13,2.13,0,0,0,1.67.72,2.18,2.18,0,0,0,1.88-.93A4.08,4.08,0,0,0,61.6,25.78Z" style="fill:#fff"/><path d="M74.81,25.7a5.45,5.45,0,0,1-1.32,3.87,3.86,3.86,0,0,1-2.94,1.26,2.94,2.94,0,0,1-2.72-1.36h0v5.05H65.65V24.18q0-1.54-.08-3.16h1.88l.12,1.52h0a3.79,3.79,0,0,1,6.07-.38A5.3,5.3,0,0,1,74.81,25.7Zm-2.17.08A4,4,0,0,0,72,23.47a2.18,2.18,0,0,0-1.86-.95,2.22,2.22,0,0,0-1.43.52,2.42,2.42,0,0,0-.84,1.37,2.85,2.85,0,0,0-.1.65v1.6a2.57,2.57,0,0,0,.64,1.77,2.13,2.13,0,0,0,1.67.72A2.18,2.18,0,0,0,72,28.23,4.08,4.08,0,0,0,72.64,25.78Z" style="fill:#fff"/><path d="M87.15,26.88A3.55,3.55,0,0,1,86,29.65a5.24,5.24,0,0,1-3.62,1.17A6.35,6.35,0,0,1,78.89,30l.49-1.78a5.84,5.84,0,0,0,3.08.85,2.91,2.91,0,0,0,1.88-.54A1.78,1.78,0,0,0,85,27.06a1.85,1.85,0,0,0-.55-1.36,5.14,5.14,0,0,0-1.84-1q-3.5-1.3-3.49-3.82a3.38,3.38,0,0,1,1.22-2.69,4.83,4.83,0,0,1,3.26-1,6.46,6.46,0,0,1,3,.63l-.53,1.74a5.24,5.24,0,0,0-2.55-.61,2.58,2.58,0,0,0-1.76.55,1.58,1.58,0,0,0-.53,1.2,1.63,1.63,0,0,0,.61,1.3,6.91,6.91,0,0,0,1.94,1,6.57,6.57,0,0,1,2.53,1.62A3.38,3.38,0,0,1,87.15,26.88Z" style="fill:#fff"/><path d="M94.2,22.62H91.85v4.66q0,1.78,1.24,1.78A3.79,3.79,0,0,0,94,29l.06,1.62a4.83,4.83,0,0,1-1.66.24,2.56,2.56,0,0,1-2-.77,3.78,3.78,0,0,1-.71-2.59V22.62h-1.4V21h1.4V19.26l2.09-.63V21H94.2Z" style="fill:#fff"/><path d="M104.8,25.74a5.26,5.26,0,0,1-1.26,3.63A4.51,4.51,0,0,1,100,30.83a4.29,4.29,0,0,1-3.36-1.4A5.1,5.1,0,0,1,95.4,25.9a5.21,5.21,0,0,1,1.29-3.65,4.47,4.47,0,0,1,3.48-1.42,4.38,4.38,0,0,1,3.4,1.4A5,5,0,0,1,104.8,25.74Zm-2.21.07a4.32,4.32,0,0,0-.57-2.28,2.11,2.11,0,0,0-1.91-1.15,2.14,2.14,0,0,0-2,1.15,4.4,4.4,0,0,0-.57,2.32,4.31,4.31,0,0,0,.57,2.28,2.18,2.18,0,0,0,3.85,0A4.33,4.33,0,0,0,102.59,25.81Z" style="fill:#fff"/><path d="M111.73,22.89a3.7,3.7,0,0,0-.67-.06,2,2,0,0,0-1.74.85,3.19,3.19,0,0,0-.53,1.9v5h-2.13l0-6.57q0-1.66-.08-3h1.86l.08,1.84h.06a3.28,3.28,0,0,1,1.07-1.52,2.58,2.58,0,0,1,1.54-.51,3.42,3.42,0,0,1,.53,0Z" style="fill:#fff"/><path d="M121.27,25.36a5,5,0,0,1-.08,1h-6.4a2.78,2.78,0,0,0,.93,2.17,3.17,3.17,0,0,0,2.09.67,7.07,7.07,0,0,0,2.59-.45l.33,1.48a8,8,0,0,1-3.22.59A4.66,4.66,0,0,1,114,29.48,4.85,4.85,0,0,1,112.74,26a5.5,5.5,0,0,1,1.19-3.61,4.09,4.09,0,0,1,3.36-1.54,3.58,3.58,0,0,1,3.14,1.54A5.19,5.19,0,0,1,121.27,25.36Zm-2-.55a2.9,2.9,0,0,0-.41-1.64,1.86,1.86,0,0,0-1.7-.89,2,2,0,0,0-1.7.87,3.18,3.18,0,0,0-.63,1.66h4.44Z" style="fill:#fff"/><path d="M91.3,8.53l.69.11a4.06,4.06,0,0,0-.21,1.19,1.42,1.42,0,0,0,1.55,1.46,1.85,1.85,0,0,0,1.48-.7,1.14,1.14,0,0,0,.22-.52A2.13,2.13,0,0,0,95,9.54a7.24,7.24,0,0,0-.66-1.67l.89-.37a6.8,6.8,0,0,1,.58,1.64,1.56,1.56,0,0,0,.62.1c.32,0,.67.15.67.58,0,.25-.12.58-.67.58a1.69,1.69,0,0,1-.62-.09,2.39,2.39,0,0,1-.33.91,2.48,2.48,0,0,1-2.25,1.16,2.14,2.14,0,0,1-2.29-2.28A3.62,3.62,0,0,1,91.3,8.53Zm1.28-2.12a.57.57,0,1,1,1.13,0,.56.56,0,1,1-1.13,0Z" style="fill:#fff"/><path d="M95.74,9.82c0-.27.14-.58.69-.58h0c.42,0,.58-.2.77-.69C97.65,7.44,98,7,98.78,7c1,0,1.54,1.17,1.54,2.1a1.2,1.2,0,0,1-1.16,1.33,2.8,2.8,0,0,1-1.64-.61,1.11,1.11,0,0,1-1.09.61h0C96.1,10.4,95.74,10.25,95.74,9.82Zm3.44-.53c.23,0,.39-.07.39-.31,0-.46-.39-1-.84-1s-.56.17-.78.85A2.16,2.16,0,0,0,99.18,9.29Z" style="fill:#fff"/><path d="M108.32,8.42a.84.84,0,0,0,.95.82c.32,0,.67.15.67.58,0,.25-.12.58-.67.58a1.08,1.08,0,0,1-.89-.39,2.12,2.12,0,0,1-.35,1.35,2.8,2.8,0,0,1-2.32,1.1,2.09,2.09,0,0,1-2.26-2.19,3.74,3.74,0,0,1,.32-1.45l.69.12a3.6,3.6,0,0,0-.16,1,1.43,1.43,0,0,0,1.56,1.5,1.92,1.92,0,0,0,1.54-.64.84.84,0,0,0,.08-.5l-.26-6.41.92-.06Z" style="fill:#fff"/><path d="M108.66,9.8a.56.56,0,0,1,.61-.56h.22a2.62,2.62,0,0,0,1.18-.17V8.94a4.56,4.56,0,0,0-.71-2l.89-.32a5.88,5.88,0,0,1,.67,2.47,2.35,2.35,0,0,1-.14.85c-.24.22-.65.47-2,.47h-.11A.55.55,0,0,1,108.66,9.8Zm1.63,2.42a.55.55,0,1,1-1.09,0,.53.53,0,0,1,.55-.57A.52.52,0,0,1,110.3,12.22Zm1.37,0a.52.52,0,0,1-.55.56.51.51,0,0,1-.53-.56.52.52,0,0,1,.53-.57A.53.53,0,0,1,111.67,12.22Z" style="fill:#fff"/><path d="M113.71,5.86a.57.57,0,1,1,1.14,0,.57.57,0,1,1-1.14,0Z" style="fill:#fff"/><path d="M116.67,5.47a.57.57,0,1,1,1.14,0,.57.57,0,1,1-1.14,0Z" style="fill:#fff"/><path d="M113.59,11.4A1.43,1.43,0,0,0,115,10.13a4.79,4.79,0,0,0-.85-2.06l.86-.32a1.09,1.09,0,0,0,1,.69,1,1,0,0,0,1.06-.82l.76-.07a4,4,0,0,0-.08.71c0,.75.42,1,1,1,.32,0,.67.15.67.58,0,.25-.11.58-.67.58A1.49,1.49,0,0,1,117.16,9a1.46,1.46,0,0,1-1.12.45,2.39,2.39,0,0,1-.31,0,3,3,0,0,1,.09.74,2.27,2.27,0,0,1-2.17,2.33A1.75,1.75,0,0,1,112.3,12l.14-.85A2.2,2.2,0,0,0,113.59,11.4Z" style="fill:#fff"/><path d="M118.21,9.8a.56.56,0,0,1,.61-.56h.23a2.63,2.63,0,0,0,1.18-.17V8.94a4.56,4.56,0,0,0-.71-2l.89-.32a5.88,5.88,0,0,1,.67,2.47,2.35,2.35,0,0,1-.14.85c-.24.22-.65.47-2,.47h-.11A.55.55,0,0,1,118.21,9.8Zm.12-4.7a.55.55,0,1,1,1.1,0,.55.55,0,1,1-1.1,0Zm1.39,0a.54.54,0,1,1,1.08,0,.51.51,0,0,1-.54.56A.51.51,0,0,1,119.72,5.11Z" style="fill:#fff"/></svg>