<svg id="Layer_1" data-name="Layer 1" xmlns="http://www.w3.org/2000/svg" xmlns:xlink="http://www.w3.org/1999/xlink" viewBox="0 0 135.5 40.8"><defs><linearGradient id="linear-gradient" x1="22.3" y1="367.51" x2="5.52" y2="384.29" gradientTransform="translate(0 -358)" gradientUnits="userSpaceOnUse"><stop offset="0" stop-color="#00a0ff"/><stop offset="0.01" stop-color="#00a1ff"/><stop offset="0.26" stop-color="#00beff"/><stop offset="0.51" stop-color="#00d2ff"/><stop offset="0.76" stop-color="#00dfff"/><stop offset="1" stop-color="#00e3ff"/></linearGradient><linearGradient id="linear-gradient-2" x1="34.33" y1="378.8" x2="10.14" y2="378.8" gradientTransform="translate(0 -358)" gradientUnits="userSpaceOnUse"><stop offset="0" stop-color="#ffe000"/><stop offset="0.41" stop-color="#ffbd00"/><stop offset="0.78" stop-color="orange"/><stop offset="1" stop-color="#ff9c00"/></linearGradient><linearGradient id="linear-gradient-3" x1="25.33" y1="381.1" x2="2.57" y2="403.85" gradientTransform="translate(0 -358)" gradientUnits="userSpaceOnUse"><stop offset="0" stop-color="#ff3a44"/><stop offset="1" stop-color="#c31162"/></linearGradient><linearGradient id="linear-gradient-4" x1="7.8" y1="358.98" x2="17.96" y2="369.14" gradientTransform="translate(0 -358)" gradientUnits="userSpaceOnUse"><stop offset="0" stop-color="#32a071"/><stop offset="0.07" stop-color="#2da771"/><stop offset="0.48" stop-color="#15cf74"/><stop offset="0.8" stop-color="#06e775"/><stop offset="1" stop-color="#00f076"/></linearGradient></defs><title>google-play-store-ar</title><path d="M130.5.8a5,5,0,0,1,5,5v30a5,5,0,0,1-5,5H5.5a5,5,0,0,1-5-5V5.8a5,5,0,0,1,5-5"/><path d="M5.5.8h125"/><line x1="5.5" y1="1.6" x2="130.5" y2="1.6" style="fill:#a6a6a6"/><rect width="135" height="40" rx="5" ry="5"/><path d="M130.5.8H5.5" style="fill:#a6a6a6"/><path d="M68.64,22.55a4.25,4.25,0,1,0,4.27,4.25,4.19,4.19,0,0,0-4.13-4.25Zm0,6.83A2.58,2.58,0,1,1,71,26.63q0,.09,0,.17a2.46,2.46,0,0,1-2.34,2.58Zm-9.31-6.83a4.25,4.25,0,1,0,4.26,4.25,4.19,4.19,0,0,0-4.13-4.25h-.13Zm0,6.83a2.58,2.58,0,1,1,2.38-2.76q0,.09,0,.18a2.46,2.46,0,0,1-2.34,2.58h-.05ZM48.24,23.86v1.8h4.32a3.77,3.77,0,0,1-1,2.27,4.42,4.42,0,0,1-3.33,1.32,4.8,4.8,0,0,1,0-9.6,4.6,4.6,0,0,1,3.27,1.29l1.27-1.27a6.29,6.29,0,0,0-4.53-1.87A6.61,6.61,0,1,0,47.73,31h.51a5.84,5.84,0,0,0,6.17-6.07,5.87,5.87,0,0,0-.1-1.13Zm45.31,1.4a3.92,3.92,0,0,0-7.65,1.28q0,.13,0,.26A4.16,4.16,0,0,0,90,31h.15a4.23,4.23,0,0,0,3.54-1.88l-1.45-1a2.43,2.43,0,0,1-2.09,1.18,2.16,2.16,0,0,1-2.06-1.29l5.69-2.35Zm-5.8,1.42a2.33,2.33,0,0,1,2.17-2.48h0a1.65,1.65,0,0,1,1.58.9ZM83.13,30.8H85V18.3H83.13Zm-3.06-7.3H80a3,3,0,0,0-2.24-1,4.26,4.26,0,0,0,0,8.51A2.9,2.9,0,0,0,80,30h.06v.61c0,1.63-.87,2.5-2.27,2.5a2.35,2.35,0,0,1-2.14-1.51L74,32.29a4.05,4.05,0,0,0,3.77,2.51c2.19,0,4-1.29,4-4.43V22.8H80.07Zm-2.14,5.88a2.59,2.59,0,0,1,0-5.16,2.4,2.4,0,0,1,2.27,2.52v.06A2.38,2.38,0,0,1,78,29.37h-.1ZM102.31,18.3H97.84V30.8h1.87V26.06h2.61a3.89,3.89,0,1,0,0-7.76Zm0,6H99.7V20h2.65a2.14,2.14,0,0,1,0,4.29Zm11.53-1.8a3.5,3.5,0,0,0-3.33,1.91l1.66.69a1.77,1.77,0,0,1,1.7-.92,1.8,1.8,0,0,1,2,1.58v.16a4.13,4.13,0,0,0-1.95-.48c-1.79,0-3.6,1-3.6,2.81a2.89,2.89,0,0,0,3,2.75h.08a2.63,2.63,0,0,0,2.4-1.2h.06v1h1.8V26c0-2.19-1.66-3.46-3.79-3.46Zm-.23,6.85c-.61,0-1.46-.31-1.46-1.06,0-1,1.06-1.33,2-1.33a3.32,3.32,0,0,1,1.7.42,2.26,2.26,0,0,1-2.19,2Zm10.63-6.55-2.14,5.42H122l-2.22-5.42h-2l3.33,7.58-1.9,4.21h1.95l5.12-11.79Zm-16.81,8h1.87V18.3h-1.87Z" style="fill:#fff"/><path d="M10.94,8.34a2,2,0,0,0-.46,1.4V31.86a2,2,0,0,0,.46,1.4l.07.07L23.4,20.95v-.29L11,8.27Z" style="fill:url(#linear-gradient)"/><path d="M27.5,25.08l-4.1-4.13v-.29l4.1-4.14.09,0,4.91,2.79c1.4.79,1.4,2.09,0,2.89L27.61,25Z" style="fill:url(#linear-gradient-2)"/><path d="M27.62,25,23.4,20.8,10.94,33.26a1.63,1.63,0,0,0,2.08.06L27.63,25" style="fill:url(#linear-gradient-3)"/><path d="M27.62,16.58,13,8.28a1.63,1.63,0,0,0-2.08.06L23.4,20.8Z" style="fill:url(#linear-gradient-4)"/><path d="M27.5,24.93,13,33.18a1.67,1.67,0,0,1-2,0h0l-.07.07h0l.07.07h0a1.66,1.66,0,0,0,2,0L27.62,25Z" style="opacity:0.20000000298023224;isolation:isolate"/><path d="M10.94,33.12a2,2,0,0,1-.46-1.4v.15a2,2,0,0,0,.46,1.4L11,33.2Z" style="opacity:0.11999999731779099;isolation:isolate"/><path d="M32.5,22.1l-5,2.83.09.09,4.91-2.78a1.75,1.75,0,0,0,1-1.44h0A1.86,1.86,0,0,1,32.5,22.1Z" style="opacity:0.11999999731779099;isolation:isolate"/><path d="M13,8.42,32.5,19.5a1.86,1.86,0,0,1,1,1.3h0a1.75,1.75,0,0,0-1-1.44L13,8.28c-1.4-.79-2.54-.13-2.54,1.47V9.9C10.5,8.29,11.62,7.63,13,8.42Z" style="fill:#fff;opacity:0.25;isolation:isolate"/><path d="M70.93,15.31a2,2,0,0,1-1.43-.51A2.1,2.1,0,0,1,69,13.27a4.18,4.18,0,0,1,0-.6,5.2,5.2,0,0,1,.17-.82l.4.1a3.3,3.3,0,0,0-.12.78,1.81,1.81,0,0,0,.4,1.25,1.43,1.43,0,0,0,1.12.45,3.67,3.67,0,0,0,1.63-.4,2.2,2.2,0,0,0,1.08-1,6.73,6.73,0,0,1-.72-2.1.88.88,0,0,1,.16-.52,1.8,1.8,0,0,1,.56-.47,7.29,7.29,0,0,0,.25,1.42h0a1.77,1.77,0,0,0,.8.18.08.08,0,0,1,.09.09v.66a.08.08,0,0,1-.07.09h0a1.59,1.59,0,0,1-.67-.13v.32a2.23,2.23,0,0,1-.43,1.29,3.23,3.23,0,0,1-1.18,1A3.28,3.28,0,0,1,70.93,15.31Zm.88-6a5.59,5.59,0,0,1-.71.81,6.81,6.81,0,0,1-.79-.71q.56-.56.77-.81a9,9,0,0,0,.72.7Z" style="fill:#fff;stroke:#fff;stroke-miterlimit:10;stroke-width:0.20000000298023224px"/><path d="M74.78,12.43a.08.08,0,0,1-.09-.09v-.66a.08.08,0,0,1,.07-.09h0a1.2,1.2,0,0,0,.71-.2,1.63,1.63,0,0,0,.5-.62l.22-.44A4.13,4.13,0,0,1,77,9.06a1.29,1.29,0,0,1,.89-.37.87.87,0,0,1,.64.39,3,3,0,0,1,.52,1,3.93,3.93,0,0,1,.2,1.19,1.35,1.35,0,0,1-.55,1.14,5.91,5.91,0,0,1-1.41-.18,4.71,4.71,0,0,1-1.26-.43,1.46,1.46,0,0,1-1.29.66Zm3.7-.84a4,4,0,0,0-.26-1.31q-.24-.62-.47-.62a.69.69,0,0,0-.39.12,1.5,1.5,0,0,0-.37.38,7.67,7.67,0,0,0-.49.87,5.28,5.28,0,0,0,2,.56Z" style="fill:#fff;stroke:#fff;stroke-miterlimit:10;stroke-width:0.20000000298023224px"/><path d="M85.28,12a7.47,7.47,0,0,1-.83-.1,3.4,3.4,0,0,1-.47-.15,3.8,3.8,0,0,1-.5-.24,1.76,1.76,0,0,1-.39-.28A.38.38,0,0,1,83,11a1.57,1.57,0,0,1,.15-.5,4.81,4.81,0,0,1,.24-.52,2.44,2.44,0,0,1,.73-.71,5.7,5.7,0,0,1,1.19-.65V8.3a4.27,4.27,0,0,1,.8-.57l.1,3.57a2.23,2.23,0,0,0,1.14.29.08.08,0,0,1,.09.09v.66a.08.08,0,0,1-.07.09h0a2.06,2.06,0,0,1-1.08-.25,1,1,0,0,1-.48-.71v-.23ZM83.5,10.47a2.28,2.28,0,0,0,1,.5,5.71,5.71,0,0,0,1.19.13l-.28-1.77h0A4,4,0,0,0,83.5,10.47Z" style="fill:#fff;stroke:#fff;stroke-miterlimit:10;stroke-width:0.20000000298023224px"/><path d="M90.27,9.92a.45.45,0,0,1,.27.09q-.2.48-.35.8a3,3,0,0,1-.18.36,2.68,2.68,0,0,0,.69.33,2.51,2.51,0,0,0,.7.09.08.08,0,0,1,.09.09v.66a.08.08,0,0,1-.07.09h0a2.54,2.54,0,0,1-1.74-.63l-.18.24a1.94,1.94,0,0,1-.8.26,6.71,6.71,0,0,1-1.35.14.08.08,0,0,1-.09-.09v-.66a.08.08,0,0,1,.07-.09h0a9.55,9.55,0,0,0,1.17-.07,1.54,1.54,0,0,0,.67-.2,2.93,2.93,0,0,0,.58-.88l.19-.35A.35.35,0,0,1,90.27,9.92Zm-1,3.89a4.3,4.3,0,0,1-.65.75,5.86,5.86,0,0,1-.73-.67q.29-.27.71-.74Zm1.66-.16a4.29,4.29,0,0,1-.66.75,5.42,5.42,0,0,1-.73-.67q.25-.23.71-.74Z" style="fill:#fff;stroke:#fff;stroke-miterlimit:10;stroke-width:0.20000000298023224px"/><path d="M91.57,12.43a.08.08,0,0,1-.09-.09v-.66a.08.08,0,0,1,.07-.09h0a2.7,2.7,0,0,0,1.2-.28q-.15-1.16-.35-4.18l-.11-1.47A4.43,4.43,0,0,1,93,5q.07,1.51.11,4.74V11.3a2.23,2.23,0,0,0,1.14.29c.06,0,.1,0,.1.09v.66c0,.06,0,.09-.1.09A1.88,1.88,0,0,1,93,12a3.11,3.11,0,0,1-.72.31A3.25,3.25,0,0,1,91.57,12.43Z" style="fill:#fff;stroke:#fff;stroke-miterlimit:10;stroke-width:0.20000000298023224px"/><path d="M94.4,12.43a.08.08,0,0,1-.09-.09v-.66a.08.08,0,0,1,.07-.09h1.39a1.6,1.6,0,0,1-.46-.47,1.15,1.15,0,0,1-.2-.64,2.22,2.22,0,0,1,.25-1A2.39,2.39,0,0,1,96,8.65a1.35,1.35,0,0,1,.84-.32,1.51,1.51,0,0,1,.73.19,4.81,4.81,0,0,1,.81.59l-.19.35a5,5,0,0,0-.63-.21,2.06,2.06,0,0,0-.44,0,2.94,2.94,0,0,0-1.41.4,1.64,1.64,0,0,0,.89,1.49,2.4,2.4,0,0,0,1,.27,7.69,7.69,0,0,0,.8-.21q.38-.12,1.07-.39a.51.51,0,0,1,.15.39v.11a.55.55,0,0,1-.46.47q-1.31.33-2,.45t-1.38.19Z" style="fill:#fff;stroke:#fff;stroke-miterlimit:10;stroke-width:0.20000000298023224px"/><path d="M107.84,13l-.28-1.78q-.47-2.79-.61-3.89a13.82,13.82,0,0,1-.15-1.45.86.86,0,0,1,.17-.57,1,1,0,0,1,.55-.28v.13l.36,1.18-.26.23v.17L108,10q.1.71.15,1.37h0a1.69,1.69,0,0,0,.81.19.08.08,0,0,1,.09.09v.66a.08.08,0,0,1-.07.09h0a1.66,1.66,0,0,1-.75-.18v.36a2.26,2.26,0,0,1-.42,1.3,3.17,3.17,0,0,1-1.17,1,3.25,3.25,0,0,1-1.53.39,2,2,0,0,1-1.47-.54,2.09,2.09,0,0,1-.53-1.53,4.16,4.16,0,0,1,0-.6,4.25,4.25,0,0,1,.17-.82l.4.1a3.35,3.35,0,0,0-.12.78,1.81,1.81,0,0,0,.4,1.25,1.43,1.43,0,0,0,1.12.45,3.53,3.53,0,0,0,1.09-.18,3.44,3.44,0,0,0,1-.5A1.87,1.87,0,0,0,107.84,13Z" style="fill:#fff;stroke:#fff;stroke-miterlimit:10;stroke-width:0.20000000298023224px"/><path d="M117.69,12.43a2.44,2.44,0,0,1-.93-.19,2.17,2.17,0,0,1-.76-.49,4,4,0,0,1-1.2.5,5.62,5.62,0,0,1-1.41.18,8.11,8.11,0,0,1-1.63-.17,4.78,4.78,0,0,1-1.33-.45l-.19.21a1.56,1.56,0,0,1-1.2.4.08.08,0,0,1-.09-.09v-.66a.08.08,0,0,1,.07-.09h0a1.48,1.48,0,0,0,.78-.18,1.93,1.93,0,0,0,.59-.7l.17-.31a.38.38,0,0,1,.35-.19.35.35,0,0,1,.26.1q-.23.56-.33.76a4,4,0,0,0,.55.21q2.1-2.79,3.59-2.79a1.68,1.68,0,0,1,.77.25,3.16,3.16,0,0,1,.82.65,1.12,1.12,0,0,1,.36.7,1.83,1.83,0,0,1-.42,1.19,2.23,2.23,0,0,0,1.17.3c.06,0,.1,0,.1.09v.66C117.78,12.4,117.75,12.43,117.69,12.43Zm-4.19-.84a5.53,5.53,0,0,0,2.94-.94,2.73,2.73,0,0,0-.8-.9,1.61,1.61,0,0,0-.92-.33,2.28,2.28,0,0,0-1.24.51,8.81,8.81,0,0,0-1.56,1.5A8.66,8.66,0,0,0,113.5,11.59Z" style="fill:#fff;stroke:#fff;stroke-miterlimit:10;stroke-width:0.20000000298023224px"/><path d="M117.74,12.43a.08.08,0,0,1-.09-.09v-.66a.08.08,0,0,1,.07-.09h0a9.15,9.15,0,0,0,2.54-.28l.61-.21a6.28,6.28,0,0,1,1.11-.3,4.82,4.82,0,0,1-.85-.55,4.49,4.49,0,0,0-.72-.49,1.26,1.26,0,0,0-.57-.14,1.71,1.71,0,0,0-.95.27l-.26.16a.58.58,0,0,1-.16-.43.77.77,0,0,1,.37-.67,1.66,1.66,0,0,1,1-.25,1.81,1.81,0,0,1,.64.1,4.33,4.33,0,0,1,.83.49,8,8,0,0,0,1,.64,3.28,3.28,0,0,0,.82.3,6,6,0,0,0,1.2.09l-.42.81-.62-.06h-.26a2.33,2.33,0,0,0-.73.11,8.34,8.34,0,0,0-1.08.49,6.09,6.09,0,0,1-1.49.57A10.5,10.5,0,0,1,117.74,12.43Z" style="fill:#fff;stroke:#fff;stroke-miterlimit:10;stroke-width:0.20000000298023224px"/><path d="M125.75,8.8v.69q0,1.06-.08,2.88l-.5.09q-.07-3.86-.3-6.4V5.92a.83.83,0,0,1,.17-.56.93.93,0,0,1,.55-.28v.13l.36,1.18-.3.25v.05Q125.75,7.8,125.75,8.8Z" style="fill:#fff;stroke:#fff;stroke-miterlimit:10;stroke-width:0.20000000298023224px"/></svg>